<mxfile host="65bd71144e">
    <diagram name="Page-1" id="oL0wTXR37TuPN3FBkX8H">
        <mxGraphModel dx="1115" dy="622" grid="1" gridSize="10" guides="1" tooltips="1" connect="1" arrows="1" fold="1" page="1" pageScale="1" pageWidth="850" pageHeight="1100" math="0" shadow="0">
            <root>
                <mxCell id="0"/>
                <mxCell id="1" parent="0"/>
                <mxCell id="RJcuPcv9WCuLpePXH_d9-4" value="&lt;font style=&quot;font-size: 17px;&quot;&gt;fNotas_Aluno&lt;/font&gt;" style="swimlane;whiteSpace=wrap;html=1;rounded=0;" parent="1" vertex="1">
                    <mxGeometry x="330" y="230" width="230" height="190" as="geometry">
                        <mxRectangle x="320" y="197.5" width="160" height="30" as="alternateBounds"/>
                    </mxGeometry>
                </mxCell>
                <mxCell id="67" value="&lt;div&gt;&lt;strong&gt;PK: notaID VARCHAR(8)&lt;/strong&gt;&lt;/div&gt;&lt;div&gt;FK: alunoID VARCHAR(7)&lt;/div&gt;&lt;div&gt;FK: diarioID VARCHAR(8)&lt;/div&gt;&lt;div&gt;mediab1 NUMERIC(4, 2)&lt;/div&gt;&lt;div&gt;mediab2 NUMERIC(4, 2)&lt;/div&gt;&lt;div&gt;mediab3 NUMERIC(4, 2)&lt;/div&gt;&lt;div&gt;mediab4 NUMERIC(4, 2)&lt;/div&gt;&lt;div&gt;media_anual NUMERIC(4, 2)&lt;/div&gt;&lt;div&gt;recuperacao NUMERIC(4, 2)&lt;/div&gt;&lt;div&gt;media_recuperacao NUMERIC(4, 2)&lt;/div&gt;&lt;div&gt;situacao VARCHAR(9)&lt;/div&gt;" style="text;html=1;align=left;verticalAlign=middle;resizable=0;points=[];autosize=1;strokeColor=none;fillColor=none;rounded=0;" parent="RJcuPcv9WCuLpePXH_d9-4" vertex="1">
                    <mxGeometry x="5" y="21.5" width="220" height="170" as="geometry"/>
                </mxCell>
                <mxCell id="RJcuPcv9WCuLpePXH_d9-12" value="&lt;font style=&quot;font-size: 17px;&quot;&gt;fMatricula&lt;/font&gt;" style="swimlane;whiteSpace=wrap;html=1;rounded=0;" parent="1" vertex="1">
                    <mxGeometry x="60" y="60" width="180" height="90" as="geometry"/>
                </mxCell>
                <mxCell id="RJcuPcv9WCuLpePXH_d9-13" value="&lt;div&gt;FK: alunoID VARCHAR(7)&lt;/div&gt;&lt;div&gt;FK: turmaID VARCHAR(9)&lt;/div&gt;&lt;div&gt;gera_quantidade SMALLINT&lt;/div&gt;" style="text;html=1;align=left;verticalAlign=middle;resizable=0;points=[];autosize=1;strokeColor=none;fillColor=none;rounded=0;" parent="RJcuPcv9WCuLpePXH_d9-12" vertex="1">
                    <mxGeometry y="25" width="180" height="60" as="geometry"/>
                </mxCell>
                <mxCell id="72" style="edgeStyle=orthogonalEdgeStyle;html=1;entryX=1.001;entryY=0.46;entryDx=0;entryDy=0;entryPerimeter=0;endArrow=ERmany;endFill=0;startArrow=ERone;startFill=0;rounded=0;" parent="1" target="RJcuPcv9WCuLpePXH_d9-13" edge="1">
                    <mxGeometry relative="1" as="geometry">
                        <mxPoint x="530" y="113" as="sourcePoint"/>
                    </mxGeometry>
                </mxCell>
                <mxCell id="RJcuPcv9WCuLpePXH_d9-17" value="&lt;font style=&quot;font-size: 17px;&quot;&gt;dTurma&lt;/font&gt;" style="swimlane;whiteSpace=wrap;html=1;startSize=23;rounded=0;" parent="1" vertex="1">
                    <mxGeometry x="529" y="40" width="170" height="110" as="geometry"/>
                </mxCell>
                <mxCell id="RJcuPcv9WCuLpePXH_d9-20" value="&lt;div&gt;&lt;strong&gt;PK: turmaID VARCHAR(9)&lt;/strong&gt;&lt;/div&gt;&lt;div&gt;serie VARCHAR(6)&lt;/div&gt;&lt;div&gt;turno VARCHAR(5)&lt;/div&gt;&lt;div&gt;ano_letivo SMALLINT&lt;/div&gt;" style="text;html=1;align=left;verticalAlign=middle;resizable=0;points=[];autosize=1;strokeColor=none;fillColor=none;rounded=0;" parent="RJcuPcv9WCuLpePXH_d9-17" vertex="1">
                    <mxGeometry x="5" y="27" width="170" height="70" as="geometry"/>
                </mxCell>
                <mxCell id="74" style="edgeStyle=orthogonalEdgeStyle;html=1;exitX=0.5;exitY=0;exitDx=0;exitDy=0;startArrow=ERone;startFill=0;endArrow=ERmany;endFill=0;rounded=0;" parent="1" source="7" edge="1">
                    <mxGeometry relative="1" as="geometry">
                        <mxPoint x="149.88372093023258" y="150" as="targetPoint"/>
                    </mxGeometry>
                </mxCell>
                <mxCell id="76" style="edgeStyle=orthogonalEdgeStyle;html=1;entryX=0.5;entryY=0;entryDx=0;entryDy=0;startArrow=ERone;startFill=0;endArrow=ERmany;endFill=0;rounded=0;exitX=0.5;exitY=1;exitDx=0;exitDy=0;" parent="1" source="7" target="31" edge="1">
                    <mxGeometry relative="1" as="geometry">
                        <mxPoint x="190" y="450" as="sourcePoint"/>
                    </mxGeometry>
                </mxCell>
                <mxCell id="86" style="edgeStyle=orthogonalEdgeStyle;html=1;exitX=1.017;exitY=0.432;exitDx=0;exitDy=0;entryX=0;entryY=0.5;entryDx=0;entryDy=0;startArrow=ERone;startFill=0;endArrow=ERmany;endFill=0;rounded=0;exitPerimeter=0;" parent="1" source="10" target="RJcuPcv9WCuLpePXH_d9-4" edge="1">
                    <mxGeometry relative="1" as="geometry"/>
                </mxCell>
                <mxCell id="7" value="&lt;font style=&quot;font-size: 17px;&quot;&gt;fAluno&lt;/font&gt;" style="swimlane;whiteSpace=wrap;html=1;rounded=0;" parent="1" vertex="1">
                    <mxGeometry x="35" y="231.5" width="230" height="184" as="geometry"/>
                </mxCell>
                <mxCell id="10" value="&lt;div&gt;PK: alunoID VARCHAR(7)&lt;/div&gt;&lt;div&gt;nome_completo VARCHAR(100)&lt;/div&gt;&lt;div&gt;data_nascimento DATE&lt;/div&gt;&lt;div&gt;sexo VARCHAR(9)&lt;/div&gt;&lt;div&gt;nome_mae VARCHAR(100)&lt;/div&gt;&lt;div&gt;nome_pai VARCHAR(100)&lt;/div&gt;&lt;div&gt;rg VARCHAR(9)&lt;/div&gt;&lt;div&gt;cpf VARCHAR(11)&lt;/div&gt;&lt;div&gt;telefone_responsavel VARCHAR(11)&lt;/div&gt;&lt;div&gt;email_responsavel VARCHAR(256)&lt;/div&gt;" style="text;html=1;align=left;verticalAlign=middle;resizable=0;points=[];autosize=1;strokeColor=none;fillColor=none;rounded=0;" parent="7" vertex="1">
                    <mxGeometry x="5" y="24" width="220" height="160" as="geometry"/>
                </mxCell>
                <mxCell id="15" value="&lt;span style=&quot;font-size: 17px;&quot;&gt;dDisciplina&lt;/span&gt;" style="swimlane;whiteSpace=wrap;html=1;rounded=0;" parent="1" vertex="1">
                    <mxGeometry x="647.5" y="680" width="200" height="85" as="geometry"/>
                </mxCell>
                <mxCell id="51" value="&lt;div style=&quot;&quot;&gt;&lt;strong&gt;PK: disciplinaID VARCHAR(2)&lt;/strong&gt;&lt;/div&gt;&lt;div style=&quot;&quot;&gt;disciplina VARCHAR(18)&lt;/div&gt;&lt;div style=&quot;&quot;&gt;carga_horaria SMALLINT&lt;/div&gt;" style="text;html=1;align=left;verticalAlign=middle;resizable=0;points=[];autosize=1;strokeColor=none;fillColor=none;rounded=0;" parent="15" vertex="1">
                    <mxGeometry x="4" y="25" width="190" height="60" as="geometry"/>
                </mxCell>
                <mxCell id="20" value="&lt;font style=&quot;font-size: 17px;&quot;&gt;fConteudo&lt;/font&gt;" style="swimlane;whiteSpace=wrap;html=1;startSize=23;rounded=0;" parent="1" vertex="1">
                    <mxGeometry x="623.5" y="250" width="221" height="91" as="geometry"/>
                </mxCell>
                <mxCell id="23" value="&lt;div style=&quot;&quot;&gt;&lt;strong&gt;PK: conteudoID VARCHAR(8)&lt;/strong&gt;&lt;/div&gt;&lt;div style=&quot;&quot;&gt;data DATE&lt;/div&gt;&lt;div style=&quot;&quot;&gt;FK: diarioID VARCHAR(8)&lt;/div&gt;&lt;div style=&quot;&quot;&gt;conteudo_ministrado VARCHAR(100&lt;span style=&quot;background-color: initial;&quot;&gt;)&lt;/span&gt;&lt;/div&gt;" style="text;html=1;align=left;verticalAlign=middle;resizable=0;points=[];autosize=1;strokeColor=none;fillColor=none;rounded=0;" parent="20" vertex="1">
                    <mxGeometry x="1" y="21" width="220" height="70" as="geometry"/>
                </mxCell>
                <mxCell id="81" style="edgeStyle=orthogonalEdgeStyle;html=1;exitX=1;exitY=0.5;exitDx=0;exitDy=0;startArrow=ERmany;startFill=0;endArrow=ERone;endFill=0;rounded=0;" parent="1" source="31" edge="1">
                    <mxGeometry relative="1" as="geometry">
                        <mxPoint x="480" y="562" as="targetPoint"/>
                    </mxGeometry>
                </mxCell>
                <mxCell id="31" value="&lt;font style=&quot;font-size: 17px;&quot;&gt;fPresenca_Aluno&lt;/font&gt;" style="swimlane;whiteSpace=wrap;html=1;rounded=0;" parent="1" vertex="1">
                    <mxGeometry x="50" y="510" width="200" height="105" as="geometry"/>
                </mxCell>
                <mxCell id="62" value="&lt;strong style=&quot;background-color: initial;&quot;&gt;PK: presencaID VARCHAR(8)&lt;/strong&gt;&lt;br style=&quot;&quot;&gt;&lt;div style=&quot;&quot;&gt;&lt;div&gt;data DATE&lt;/div&gt;&lt;div&gt;FK: diarioID VARCHAR(8)&lt;/div&gt;&lt;div&gt;FK: alunoID VARCHAR(7)&lt;/div&gt;&lt;div&gt;falta VARCHAR(1)&lt;/div&gt;&lt;/div&gt;" style="text;html=1;align=left;verticalAlign=middle;resizable=0;points=[];autosize=1;strokeColor=none;fillColor=none;rounded=0;" parent="31" vertex="1">
                    <mxGeometry x="5" y="20" width="190" height="90" as="geometry"/>
                </mxCell>
                <mxCell id="80" style="edgeStyle=orthogonalEdgeStyle;html=1;exitX=0.5;exitY=0;exitDx=0;exitDy=0;startArrow=ERone;startFill=0;endArrow=ERmany;endFill=0;rounded=0;entryX=0;entryY=0.75;entryDx=0;entryDy=0;" parent="1" source="39" target="44" edge="1">
                    <mxGeometry relative="1" as="geometry">
                        <mxPoint x="410" y="586" as="targetPoint"/>
                    </mxGeometry>
                </mxCell>
                <mxCell id="39" value="&lt;font style=&quot;font-size: 17px;&quot;&gt;dProfessor&lt;/font&gt;" style="swimlane;whiteSpace=wrap;html=1;rounded=0;" parent="1" vertex="1">
                    <mxGeometry x="305" y="680" width="210" height="105" as="geometry"/>
                </mxCell>
                <mxCell id="42" value="&lt;div&gt;&lt;strong&gt;PK: professorID VARCHAR(7)&lt;/strong&gt;&lt;/div&gt;&lt;div&gt;nome_completo VARCHAR(100)&lt;/div&gt;&lt;div&gt;telefone VARCHAR(11)&lt;/div&gt;&lt;div&gt;email VARCHAR(256)&lt;/div&gt;" style="text;html=1;align=left;verticalAlign=middle;resizable=0;points=[];autosize=1;strokeColor=none;fillColor=none;rounded=0;" parent="39" vertex="1">
                    <mxGeometry x="5" y="25" width="200" height="70" as="geometry"/>
                </mxCell>
                <mxCell id="83" style="edgeStyle=orthogonalEdgeStyle;html=1;exitX=1;exitY=0.75;exitDx=0;exitDy=0;entryX=0.5;entryY=0;entryDx=0;entryDy=0;endArrow=ERone;endFill=0;startArrow=ERmany;startFill=0;rounded=0;" parent="1" source="44" target="15" edge="1">
                    <mxGeometry relative="1" as="geometry"/>
                </mxCell>
                <mxCell id="84" style="edgeStyle=orthogonalEdgeStyle;html=1;exitX=1;exitY=0.5;exitDx=0;exitDy=0;startArrow=ERone;startFill=0;endArrow=ERmany;endFill=0;rounded=0;" parent="1" source="44" edge="1">
                    <mxGeometry relative="1" as="geometry">
                        <mxPoint x="736" y="340" as="targetPoint"/>
                    </mxGeometry>
                </mxCell>
                <mxCell id="85" style="edgeStyle=orthogonalEdgeStyle;html=1;exitX=0.5;exitY=0;exitDx=0;exitDy=0;startArrow=ERone;startFill=0;endArrow=ERmany;endFill=0;rounded=0;" parent="1" source="44" edge="1">
                    <mxGeometry relative="1" as="geometry">
                        <mxPoint x="447" y="420" as="targetPoint"/>
                    </mxGeometry>
                </mxCell>
                <mxCell id="88" style="html=1;exitX=0.75;exitY=0;exitDx=0;exitDy=0;entryX=0.5;entryY=1;entryDx=0;entryDy=0;startArrow=ERmany;startFill=0;endArrow=ERone;endFill=0;edgeStyle=orthogonalEdgeStyle;rounded=0;" parent="1" source="44" target="RJcuPcv9WCuLpePXH_d9-17" edge="1">
                    <mxGeometry relative="1" as="geometry"/>
                </mxCell>
                <mxCell id="44" value="&lt;font style=&quot;font-size: 17px;&quot;&gt;fDiario&lt;/font&gt;" style="swimlane;whiteSpace=wrap;html=1;startSize=23;rounded=0;" parent="1" vertex="1">
                    <mxGeometry x="479" y="520" width="180" height="100" as="geometry"/>
                </mxCell>
                <mxCell id="61" value="&lt;strong style=&quot;background-color: initial;&quot;&gt;PK: diarioID VARCHAR(8)&lt;/strong&gt;&lt;br&gt;&lt;div&gt;&lt;div&gt;FK: turmaID VARCHAR(9)&lt;/div&gt;&lt;div&gt;FK: professorID VARCHAR(7)&lt;/div&gt;&lt;div&gt;FK: disciplinaID VARCHAR(2)&lt;/div&gt;&lt;/div&gt;" style="text;html=1;align=left;verticalAlign=middle;resizable=0;points=[];autosize=1;strokeColor=none;fillColor=none;rounded=0;" parent="44" vertex="1">
                    <mxGeometry y="26" width="180" height="70" as="geometry"/>
                </mxCell>
            </root>
        </mxGraphModel>
    </diagram>
</mxfile>